<svg xmlns="http://www.w3.org/2000/svg"><path fill="#f7f7f7" d="M26.424 8.318c-.408-.41-.923-.62-1.508-.62h-2.484v-.073c0-.55-.426-.977-.976-.977h-1.35c-.017-.318-.095-.712-.248-1.17-.344-1.034-.983-1.855-1.863-2.502C17.118 2.33 16.13 2 15.03 2c-1.117 0-2.11.322-2.998.977-.868.64-1.5 1.47-1.846 2.502-.152.456-.23.85-.248 1.17H8.59c-.55 0-.976.426-.976.975v.072H5.147C3.94 7.697 3 8.637 3 9.844v26.314c0 1.208.94 2.132 2.147 2.132h19.767c.585 0 1.1-.216 1.508-.62.408-.41.62-.906.62-1.512V9.844c.002-.606-.21-1.12-.62-1.526zM12.37 5.478c.58-.915 1.58-1.524 2.662-1.524 1.083 0 2.064.61 2.644 1.525.22.343.373.725.444 1.17h-6.194c.07-.445.225-.827.444-1.17zm-2.804 4.19V8.6H20.48v4.22H9.565V9.667zM25.093 23.65v12.508c0 .125-.053.178-.177.178H5.148c-.125 0-.195-.053-.195-.178V9.844c0-.125.07-.178.195-.178h2.466V13.8c0 .55.426.977.976.977h12.864c.55 0 .976-.428.976-.977V9.666h2.484c.124 0 .177.053.177.178V23.65z"/></svg>