<svg class="custom-icon" xmlns="http://www.w3.org/2000/svg"><path class="inner-shape" d="M70.09 37.465c-1.478.66-3.066 1.105-4.734 1.306 1.702-1.023 3.01-2.65 3.625-4.585-1.59.95-3.354 1.64-5.232 2.013-1.503-1.612-3.646-2.62-6.017-2.62-4.553 0-8.244 3.713-8.244 8.292 0 .65.073 1.282.213 1.89-6.85-.347-12.926-3.648-16.99-8.665-.71 1.226-1.118 2.65-1.118 4.17 0 2.876 1.457 5.415 3.67 6.9-1.35-.04-2.623-.414-3.734-1.036v.103c0 4.018 2.84 7.368 6.612 8.13-.692.19-1.42.292-2.172.292-.53 0-1.047-.052-1.55-.15 1.048 3.295 4.093 5.693 7.7 5.76-2.82 2.223-6.376 3.55-10.238 3.55-.666 0-1.322-.04-1.967-.117 3.65 2.352 7.983 3.725 12.638 3.725C57.71 66.425 66 53.79 66 42.83c0-.358-.007-.716-.023-1.072 1.61-1.17 3.008-2.63 4.113-4.293z" fill="#f7f7f7"/></svg>